<svg width="370" height="70" viewBox="0 0 370 70" fill="none" xmlns="http://www.w3.org/2000/svg">
<rect width="370" height="70" fill="#2F303A" fill-opacity="0.8"/>
<path d="M85.7012 37.9492H82.1055L81.4219 40H79.2412L82.9463 30.0469H84.8467L88.5723 40H86.3916L85.7012 37.9492ZM82.6592 36.2881H85.1475L83.8965 32.5625L82.6592 36.2881ZM91.9727 36.4932V40H89.922V30.0469H93.8048C94.5522 30.0469 95.2084 30.1836 95.7735 30.457C96.3432 30.7305 96.7807 31.1201 97.086 31.626C97.3914 32.1273 97.544 32.6992 97.544 33.3418C97.544 34.3171 97.2091 35.0872 96.5391 35.6523C95.8738 36.2129 94.9509 36.4932 93.7706 36.4932H91.9727ZM91.9727 34.832H93.8048C94.3471 34.832 94.7595 34.7044 95.0421 34.4492C95.3292 34.194 95.4727 33.8294 95.4727 33.3555C95.4727 32.8678 95.3292 32.4736 95.0421 32.1729C94.755 31.8721 94.3585 31.7171 93.8526 31.708H91.9727V34.832ZM101.43 38.3525H105.784V40H99.3791V30.0469H101.43V38.3525ZM109.568 40H107.517V30.0469H109.568V40ZM119.708 36.6846C119.631 37.7555 119.234 38.5986 118.519 39.2139C117.808 39.8291 116.869 40.1367 115.702 40.1367C114.426 40.1367 113.422 39.7083 112.688 38.8516C111.959 37.9902 111.594 36.8099 111.594 35.3105V34.7021C111.594 33.7451 111.763 32.902 112.1 32.1729C112.437 31.4437 112.918 30.8854 113.542 30.498C114.171 30.1061 114.9 29.9102 115.73 29.9102C116.878 29.9102 117.803 30.2178 118.505 30.833C119.207 31.4482 119.613 32.3118 119.722 33.4238H117.671C117.621 32.7812 117.441 32.3164 117.131 32.0293C116.826 31.7376 116.359 31.5918 115.73 31.5918C115.046 31.5918 114.534 31.8379 114.192 32.3301C113.854 32.8177 113.681 33.5765 113.672 34.6064V35.3584C113.672 36.4339 113.834 37.2201 114.158 37.7168C114.486 38.2135 115.001 38.4619 115.702 38.4619C116.336 38.4619 116.808 38.3184 117.118 38.0312C117.432 37.7396 117.612 37.2907 117.658 36.6846H119.708ZM127.094 37.9492H123.498L122.815 40H120.634L124.339 30.0469H126.24L129.965 40H127.785L127.094 37.9492ZM124.052 36.2881H126.54L125.289 32.5625L124.052 36.2881ZM138.978 36.6846C138.901 37.7555 138.504 38.5986 137.789 39.2139C137.078 39.8291 136.139 40.1367 134.972 40.1367C133.696 40.1367 132.691 39.7083 131.958 38.8516C131.228 37.9902 130.864 36.8099 130.864 35.3105V34.7021C130.864 33.7451 131.032 32.902 131.37 32.1729C131.707 31.4437 132.188 30.8854 132.812 30.498C133.441 30.1061 134.17 29.9102 134.999 29.9102C136.148 29.9102 137.073 30.2178 137.775 30.833C138.477 31.4482 138.882 32.3118 138.992 33.4238H136.941C136.891 32.7812 136.711 32.3164 136.401 32.0293C136.096 31.7376 135.628 31.5918 134.999 31.5918C134.316 31.5918 133.803 31.8379 133.461 32.3301C133.124 32.8177 132.951 33.5765 132.942 34.6064V35.3584C132.942 36.4339 133.104 37.2201 133.427 37.7168C133.755 38.2135 134.27 38.4619 134.972 38.4619C135.606 38.4619 136.077 38.3184 136.387 38.0312C136.702 37.7396 136.882 37.2907 136.927 36.6846H138.978ZM142.925 40H140.875V30.0469H142.925V40ZM153.428 35.249C153.428 36.2288 153.255 37.0879 152.909 37.8262C152.562 38.5645 152.066 39.1341 151.419 39.5352C150.776 39.9362 150.038 40.1367 149.204 40.1367C148.379 40.1367 147.643 39.9385 146.996 39.542C146.349 39.1455 145.847 38.5804 145.492 37.8467C145.136 37.1084 144.956 36.2607 144.952 35.3037V34.8115C144.952 33.8317 145.127 32.9704 145.478 32.2275C145.834 31.4801 146.333 30.9082 146.975 30.5117C147.622 30.1107 148.361 29.9102 149.19 29.9102C150.02 29.9102 150.756 30.1107 151.398 30.5117C152.045 30.9082 152.544 31.4801 152.895 32.2275C153.251 32.9704 153.428 33.8294 153.428 34.8047V35.249ZM151.35 34.7979C151.35 33.7542 151.163 32.9613 150.79 32.4189C150.416 31.8766 149.883 31.6055 149.19 31.6055C148.502 31.6055 147.971 31.8743 147.597 32.4121C147.224 32.9453 147.034 33.7292 147.03 34.7637V35.249C147.03 36.2653 147.217 37.0537 147.59 37.6143C147.964 38.1748 148.502 38.4551 149.204 38.4551C149.892 38.4551 150.421 38.1862 150.79 37.6484C151.159 37.1061 151.346 36.3177 151.35 35.2832V34.7979ZM163.432 40H161.382L157.389 33.4512V40H155.339V30.0469H157.389L161.388 36.6094V30.0469H163.432V40ZM171.632 35.6865H167.694V38.3525H172.315V40H165.643V30.0469H172.302V31.708H167.694V34.0801H171.632V35.6865ZM179.099 37.3887C179.099 37.0013 178.963 36.7051 178.689 36.5C178.416 36.2904 177.924 36.0716 177.213 35.8438C176.502 35.6113 175.939 35.3835 175.524 35.1602C174.394 34.5495 173.829 33.7269 173.829 32.6924C173.829 32.1546 173.979 31.6761 174.28 31.2568C174.585 30.833 175.021 30.5026 175.586 30.2656C176.155 30.0286 176.794 29.9102 177.5 29.9102C178.211 29.9102 178.844 30.04 179.4 30.2998C179.956 30.555 180.387 30.9173 180.692 31.3867C181.002 31.8561 181.157 32.3893 181.157 32.9863H179.106C179.106 32.5306 178.963 32.1774 178.676 31.9268C178.389 31.6715 177.985 31.5439 177.466 31.5439C176.964 31.5439 176.575 31.651 176.297 31.8652C176.019 32.0749 175.88 32.3529 175.88 32.6992C175.88 33.0228 176.042 33.2939 176.365 33.5127C176.693 33.7314 177.174 33.9365 177.808 34.1279C178.974 34.4788 179.824 34.9141 180.357 35.4336C180.891 35.9531 181.157 36.6003 181.157 37.375C181.157 38.2363 180.831 38.9131 180.18 39.4053C179.528 39.8929 178.651 40.1367 177.548 40.1367C176.782 40.1367 176.085 39.9977 175.456 39.7197C174.827 39.4372 174.346 39.0521 174.014 38.5645C173.685 38.0768 173.521 37.5117 173.521 36.8691H175.579C175.579 37.9674 176.235 38.5166 177.548 38.5166C178.035 38.5166 178.416 38.4186 178.689 38.2227C178.963 38.0221 179.099 37.7441 179.099 37.3887ZM186.878 40V30.0469H189.94C190.815 30.0469 191.597 30.2451 192.285 30.6416C192.978 31.0335 193.518 31.5941 193.905 32.3232C194.293 33.0479 194.486 33.8727 194.486 34.7979V35.2559C194.486 36.181 194.295 37.0036 193.912 37.7236C193.534 38.4437 192.998 39.002 192.306 39.3984C191.613 39.7949 190.831 39.9954 189.961 40H186.878ZM188.929 31.708V38.3525H189.92C190.722 38.3525 191.335 38.0905 191.759 37.5664C192.183 37.0423 192.399 36.2926 192.408 35.3174V34.791C192.408 33.7793 192.199 33.0137 191.779 32.4941C191.36 31.9701 190.747 31.708 189.94 31.708H188.929ZM202.392 35.6865H198.454V38.3525H203.075V40H196.403V30.0469H203.062V31.708H198.454V34.0801H202.392V35.6865ZM214.593 35.6865H210.656V38.3525H215.277V40H208.605V30.0469H215.263V31.708H210.656V34.0801H214.593V35.6865ZM222.061 37.3887C222.061 37.0013 221.924 36.7051 221.651 36.5C221.377 36.2904 220.885 36.0716 220.174 35.8438C219.463 35.6113 218.9 35.3835 218.486 35.1602C217.355 34.5495 216.79 33.7269 216.79 32.6924C216.79 32.1546 216.941 31.6761 217.242 31.2568C217.547 30.833 217.982 30.5026 218.547 30.2656C219.117 30.0286 219.755 29.9102 220.461 29.9102C221.172 29.9102 221.806 30.04 222.362 30.2998C222.918 30.555 223.348 30.9173 223.654 31.3867C223.964 31.8561 224.119 32.3893 224.119 32.9863H222.068C222.068 32.5306 221.924 32.1774 221.637 31.9268C221.35 31.6715 220.947 31.5439 220.427 31.5439C219.926 31.5439 219.536 31.651 219.258 31.8652C218.98 32.0749 218.841 32.3529 218.841 32.6992C218.841 33.0228 219.003 33.2939 219.327 33.5127C219.655 33.7314 220.135 33.9365 220.769 34.1279C221.936 34.4788 222.786 34.9141 223.319 35.4336C223.852 35.9531 224.119 36.6003 224.119 37.375C224.119 38.2363 223.793 38.9131 223.141 39.4053C222.489 39.8929 221.612 40.1367 220.509 40.1367C219.744 40.1367 219.046 39.9977 218.417 39.7197C217.788 39.4372 217.308 39.0521 216.975 38.5645C216.647 38.0768 216.483 37.5117 216.483 36.8691H218.54C218.54 37.9674 219.197 38.5166 220.509 38.5166C220.997 38.5166 221.377 38.4186 221.651 38.2227C221.924 38.0221 222.061 37.7441 222.061 37.3887ZM233.747 36.6846C233.669 37.7555 233.273 38.5986 232.557 39.2139C231.846 39.8291 230.907 40.1367 229.741 40.1367C228.465 40.1367 227.46 39.7083 226.726 38.8516C225.997 37.9902 225.632 36.8099 225.632 35.3105V34.7021C225.632 33.7451 225.801 32.902 226.138 32.1729C226.475 31.4437 226.956 30.8854 227.581 30.498C228.209 30.1061 228.939 29.9102 229.768 29.9102C230.916 29.9102 231.842 30.2178 232.543 30.833C233.245 31.4482 233.651 32.3118 233.76 33.4238H231.709C231.659 32.7812 231.479 32.3164 231.169 32.0293C230.864 31.7376 230.397 31.5918 229.768 31.5918C229.084 31.5918 228.572 31.8379 228.23 32.3301C227.893 32.8177 227.72 33.5765 227.71 34.6064V35.3584C227.71 36.4339 227.872 37.2201 228.196 37.7168C228.524 38.2135 229.039 38.4619 229.741 38.4619C230.374 38.4619 230.846 38.3184 231.156 38.0312C231.47 37.7396 231.65 37.2907 231.696 36.6846H233.747ZM239.198 36.3564H237.564V40H235.513V30.0469H239.211C240.387 30.0469 241.294 30.3089 241.932 30.833C242.57 31.3571 242.889 32.0977 242.889 33.0547C242.889 33.7337 242.741 34.3011 242.445 34.7568C242.153 35.208 241.709 35.568 241.112 35.8369L243.265 39.9043V40H241.064L239.198 36.3564ZM237.564 34.6953H239.218C239.733 34.6953 240.132 34.5654 240.415 34.3057C240.697 34.0413 240.838 33.679 240.838 33.2188C240.838 32.7493 240.704 32.3802 240.435 32.1113C240.171 31.8424 239.763 31.708 239.211 31.708H237.564V34.6953ZM247.055 40H245.004V30.0469H247.055V40ZM256.67 31.708H253.621V40H251.57V31.708H248.562V30.0469H256.67V31.708ZM266.25 35.249C266.25 36.2288 266.077 37.0879 265.73 37.8262C265.384 38.5645 264.887 39.1341 264.24 39.5352C263.597 39.9362 262.859 40.1367 262.025 40.1367C261.2 40.1367 260.464 39.9385 259.817 39.542C259.17 39.1455 258.669 38.5804 258.313 37.8467C257.958 37.1084 257.778 36.2607 257.773 35.3037V34.8115C257.773 33.8317 257.949 32.9704 258.3 32.2275C258.655 31.4801 259.154 30.9082 259.797 30.5117C260.444 30.1107 261.182 29.9102 262.011 29.9102C262.841 29.9102 263.577 30.1107 264.219 30.5117C264.867 30.9082 265.366 31.4801 265.717 32.2275C266.072 32.9704 266.25 33.8294 266.25 34.8047V35.249ZM264.172 34.7979C264.172 33.7542 263.985 32.9613 263.611 32.4189C263.237 31.8766 262.704 31.6055 262.011 31.6055C261.323 31.6055 260.792 31.8743 260.419 32.4121C260.045 32.9453 259.856 33.7292 259.851 34.7637V35.249C259.851 36.2653 260.038 37.0537 260.412 37.6143C260.786 38.1748 261.323 38.4551 262.025 38.4551C262.713 38.4551 263.242 38.1862 263.611 37.6484C263.98 37.1061 264.167 36.3177 264.172 35.2832V34.7979ZM271.845 36.3564H270.211V40H268.16V30.0469H271.858C273.034 30.0469 273.941 30.3089 274.579 30.833C275.217 31.3571 275.536 32.0977 275.536 33.0547C275.536 33.7337 275.388 34.3011 275.092 34.7568C274.8 35.208 274.356 35.568 273.759 35.8369L275.912 39.9043V40H273.711L271.845 36.3564ZM270.211 34.6953H271.865C272.38 34.6953 272.779 34.5654 273.061 34.3057C273.344 34.0413 273.485 33.679 273.485 33.2188C273.485 32.7493 273.351 32.3802 273.082 32.1113C272.818 31.8424 272.41 31.708 271.858 31.708H270.211V34.6953ZM279.702 40H277.651V30.0469H279.702V40ZM290.205 35.249C290.205 36.2288 290.032 37.0879 289.686 37.8262C289.339 38.5645 288.842 39.1341 288.195 39.5352C287.553 39.9362 286.814 40.1367 285.98 40.1367C285.156 40.1367 284.42 39.9385 283.772 39.542C283.125 39.1455 282.624 38.5804 282.269 37.8467C281.913 37.1084 281.733 36.2607 281.729 35.3037V34.8115C281.729 33.8317 281.904 32.9704 282.255 32.2275C282.61 31.4801 283.109 30.9082 283.752 30.5117C284.399 30.1107 285.137 29.9102 285.967 29.9102C286.796 29.9102 287.532 30.1107 288.175 30.5117C288.822 30.9082 289.321 31.4801 289.672 32.2275C290.027 32.9704 290.205 33.8294 290.205 34.8047V35.249ZM288.127 34.7979C288.127 33.7542 287.94 32.9613 287.566 32.4189C287.193 31.8766 286.66 31.6055 285.967 31.6055C285.279 31.6055 284.748 31.8743 284.374 32.4121C284 32.9453 283.811 33.7292 283.807 34.7637V35.249C283.807 36.2653 283.993 37.0537 284.367 37.6143C284.741 38.1748 285.279 38.4551 285.98 38.4551C286.669 38.4551 287.197 38.1862 287.566 37.6484C287.936 37.1061 288.122 36.3177 288.127 35.2832V34.7979Z" fill="white"/>
</svg>
